<?xml version="1.0" encoding="UTF-8" standalone="no"?>
<!DOCTYPE svg PUBLIC "-//W3C//DTD SVG 1.1//EN"
 "http://www.w3.org/Graphics/SVG/1.1/DTD/svg11.dtd">
<!-- Generated by graphviz version 2.40.1 (20161225.0304)
 -->
<!-- Title: dependencies Pages: 1 -->
<svg width="504pt" height="211pt"
 viewBox="0.00 0.00 504.00 211.00" xmlns="http://www.w3.org/2000/svg" xmlns:xlink="http://www.w3.org/1999/xlink">
<g id="graph0" class="graph" transform="scale(1 1) rotate(0) translate(4 207)">
<title>dependencies</title>
<polygon fill="#ffffff" stroke="transparent" points="-4,4 -4,-207 500,-207 500,4 -4,4"/>
<text text-anchor="start" x="227.0091" y="-42.4" font-family="sans-serif" font-weight="bold" font-size="14.00" fill="#000000">Legend</text>
<polygon fill="#ffffb3" stroke="transparent" points="14,-10 14,-30 34,-30 34,-10 14,-10"/>
<text text-anchor="start" x="37.629" y="-15.4" font-family="sans-serif" font-size="14.00" fill="#000000"> &#160;Declarations</text>
<polygon fill="#8dd3c7" stroke="transparent" points="127,-10 127,-30 147,-30 147,-10 127,-10"/>
<text text-anchor="start" x="150.7251" y="-15.4" font-family="sans-serif" font-size="14.00" fill="#000000"> &#160;Module</text>
<polygon fill="#80b1d3" stroke="transparent" points="213,-10 213,-30 233,-30 233,-10 213,-10"/>
<text text-anchor="start" x="236.7812" y="-15.4" font-family="sans-serif" font-size="14.00" fill="#000000"> &#160;Bootstrap</text>
<polygon fill="#fdb462" stroke="transparent" points="310,-10 310,-30 330,-30 330,-10 310,-10"/>
<text text-anchor="start" x="333.6732" y="-15.4" font-family="sans-serif" font-size="14.00" fill="#000000"> &#160;Providers</text>
<polygon fill="#fb8072" stroke="transparent" points="406,-10 406,-30 426,-30 426,-10 406,-10"/>
<text text-anchor="start" x="429.7258" y="-15.4" font-family="sans-serif" font-size="14.00" fill="#000000"> &#160;Exports</text>
<g id="clust1" class="cluster">
<title>cluster_ServicesModule</title>
<polygon fill="none" stroke="#000000" stroke-dasharray="1,5" points="68,-70 68,-195 428,-195 428,-70 68,-70"/>
</g>
<g id="clust6" class="cluster">
<title>cluster_ServicesModule_providers</title>
<polygon fill="none" stroke="#000000" points="76,-78 76,-130 420,-130 420,-78 76,-78"/>
</g>
<!-- EventService -->
<g id="node1" class="node">
<title>EventService</title>
<ellipse fill="#fdb462" stroke="#000000" cx="349" cy="-104" rx="62.5373" ry="18"/>
<text text-anchor="middle" x="349" y="-99.8" font-family="Times,serif" font-size="14.00" fill="#000000">EventService</text>
</g>
<!-- ServicesModule -->
<g id="node3" class="node">
<title>ServicesModule</title>
<polygon fill="#8dd3c7" stroke="#000000" points="315.472,-187 312.472,-191 291.472,-191 288.472,-187 208.528,-187 208.528,-151 315.472,-151 315.472,-187"/>
<text text-anchor="middle" x="262" y="-164.8" font-family="Times,serif" font-size="14.00" fill="#000000">ServicesModule</text>
</g>
<!-- EventService&#45;&gt;ServicesModule -->
<g id="edge1" class="edge">
<title>EventService&#45;&gt;ServicesModule</title>
<path fill="none" stroke="#000000" d="M300.9837,-115.6207C300.9837,-115.6207 300.9837,-140.8534 300.9837,-140.8534"/>
<polygon fill="#000000" stroke="#000000" points="297.4838,-140.8533 300.9837,-150.8534 304.4838,-140.8534 297.4838,-140.8533"/>
</g>
<!-- HtmlElementService -->
<g id="node2" class="node">
<title>HtmlElementService</title>
<ellipse fill="#fdb462" stroke="#000000" cx="176" cy="-104" rx="92.047" ry="18"/>
<text text-anchor="middle" x="176" y="-99.8" font-family="Times,serif" font-size="14.00" fill="#000000">HtmlElementService</text>
</g>
<!-- HtmlElementService&#45;&gt;ServicesModule -->
<g id="edge2" class="edge">
<title>HtmlElementService&#45;&gt;ServicesModule</title>
<path fill="none" stroke="#000000" d="M238.2688,-117.468C238.2688,-117.468 238.2688,-140.8642 238.2688,-140.8642"/>
<polygon fill="#000000" stroke="#000000" points="234.7689,-140.8641 238.2688,-150.8642 241.7689,-140.8642 234.7689,-140.8641"/>
</g>
</g>
</svg>
